<?xml version="1.0" encoding="iso-8859-1"?>
<!-- Generator: Adobe Illustrator 19.0.0, SVG Export Plug-In . SVG Version: 6.00 Build 0)  -->
<svg version="1.1" id="Capa_1" xmlns="http://www.w3.org/2000/svg" xmlns:xlink="http://www.w3.org/1999/xlink" x="0px" y="0px"
	 viewBox="0 0 512 512" style="enable-background:new 0 0 512 512;" xml:space="preserve">
<path style="fill:#CFD8DC;" d="M53.333,85.333h405.333c29.455,0,53.333,23.878,53.333,53.333v234.667
	c0,29.455-23.878,53.333-53.333,53.333H53.333C23.878,426.667,0,402.789,0,373.333V138.667C0,109.211,23.878,85.333,53.333,85.333z"
	/>
<g>
	<path style="fill:#F44336;" d="M138.667,213.099c-0.666-0.002-1.33-0.066-1.984-0.192c-11.989-2.261-72.341-15.125-81.835-45.888
		c-3.41-13.405,1.398-27.562,12.267-36.117c8.572-10.859,22.727-15.663,36.139-12.267c30.741,9.493,43.605,69.824,45.867,81.813
		c1.096,5.788-2.708,11.369-8.497,12.465c-0.652,0.123-1.314,0.186-1.978,0.186L138.667,213.099z M94.848,138.667
		c-4.982,0.746-9.5,3.344-12.651,7.275c-5.824,5.824-8.192,10.795-6.955,14.741c3.307,10.667,27.307,21.184,49.067,27.328
		c-6.165-21.611-16.576-45.675-27.349-49.003C96.278,138.787,95.565,138.672,94.848,138.667z"/>
	<path style="fill:#F44336;" d="M138.667,213.099c-5.891-0.012-10.657-4.797-10.645-10.688c0.001-0.629,0.058-1.258,0.17-1.877
		c2.261-11.989,15.125-72.32,45.867-81.813c13.412-3.42,27.579,1.389,36.139,12.267c10.869,8.556,15.677,22.712,12.267,36.117
		c-9.493,30.677-69.824,43.541-81.813,45.803C139.997,213.032,139.333,213.097,138.667,213.099z M182.485,138.667
		c-0.723,0-1.442,0.108-2.133,0.32c-10.795,3.328-21.205,27.328-27.307,49.067c21.717-6.123,45.739-16.555,49.067-27.328
		c1.237-3.947-1.131-8.917-6.955-14.741C192.009,142.033,187.482,139.419,182.485,138.667z"/>
	<rect x="128" y="85.333" style="fill:#F44336;" width="21.333" height="341.333"/>
	<rect y="191.765" style="fill:#F44336;" width="512" height="21.333"/>
	<path style="fill:#F44336;" d="M96,277.099c-5.891,0-10.667-4.776-10.667-10.667c0-37.632,45.099-71.189,46.933-72.533
		c4.748-3.487,11.424-2.466,14.912,2.283c3.488,4.748,2.466,11.425-2.283,14.912c-10.667,7.872-38.4,33.152-38.4,55.467
		C106.427,272.335,101.775,277.007,96,277.099z"/>
	<path style="fill:#F44336;" d="M181.333,277.099c-5.891,0-10.667-4.776-10.667-10.667c0-22.357-27.733-47.573-38.4-55.467
		c-4.73-3.535-5.7-10.235-2.165-14.965c3.535-4.73,10.235-5.7,14.965-2.165C146.987,195.243,192,228.8,192,266.368
		c0.035,5.891-4.712,10.695-10.602,10.73C181.376,277.099,181.355,277.099,181.333,277.099z"/>
</g>
<g>
	<path style="fill:#37474F;" d="M373.333,362.667c-28.672,0-51.051-12.309-53.205-29.291c-0.748-5.856,3.392-11.209,9.248-11.957
		c5.856-0.748,11.209,3.392,11.957,9.248c0.405,3.115,12.096,10.667,32,10.667c20.693,0,32-8.021,32-10.667
		c0,0-0.363-6.656-31.104-10.475L371.904,320C356.267,317.995,320,313.6,320,288c0-18.24,22.933-32,53.333-32
		c28.672,0,51.051,12.309,53.205,29.269c0.754,5.856-3.382,11.214-9.237,11.968c-5.856,0.754-11.214-3.382-11.968-9.237l0,0
		c-0.405-3.115-12.096-10.667-32-10.667c-20.693,0-32,8.021-32,10.667c0,0,0.363,6.699,31.253,10.475l2.133,0.299
		c15.659,1.941,51.861,6.4,51.861,32C426.667,348.907,403.733,362.667,373.333,362.667z"/>
	<path style="fill:#37474F;" d="M373.333,384c-5.891,0-10.667-4.776-10.667-10.667v-128c0-5.891,4.776-10.667,10.667-10.667
		S384,239.442,384,245.333v128C384,379.224,379.224,384,373.333,384z"/>
</g>
<path d="M458.667,426.667H53.333C23.878,426.667,0,402.789,0,373.333V138.667c0-29.455,23.878-53.333,53.333-53.333h405.333
	c29.455,0,53.333,23.878,53.333,53.333v234.667C512,402.789,488.122,426.667,458.667,426.667z M53.333,106.667
	c-17.673,0-32,14.327-32,32v234.667c0,17.673,14.327,32,32,32h405.333c17.673,0,32-14.327,32-32V138.667c0-17.673-14.327-32-32-32
	H53.333z"/>
<path d="M373.333,362.667c-28.736,0-51.2-12.331-53.333-29.312c-0.742-5.891,3.432-11.268,9.323-12.011
	c5.891-0.742,11.268,3.432,12.011,9.323c0.384,3.093,12.096,10.667,32,10.667c20.672,0,32-8.021,32-10.667
	c0,0-0.363-6.656-31.104-10.475L371.883,320C356.267,317.973,320,313.6,320,288c0-18.24,22.933-32,53.333-32
	c28.693,0,51.072,12.309,53.227,29.291c0.748,5.862-3.397,11.22-9.259,11.968s-11.22-3.397-11.968-9.259
	c-0.32-2.475-10.923-10.667-32-10.667c-20.672,0-32,8.021-32,10.667c0,0,0.363,6.699,31.232,10.475l2.133,0.299
	c15.659,1.941,51.861,6.4,51.861,32C426.667,348.907,403.733,362.667,373.333,362.667z"/>
<path d="M373.333,384c-5.891,0-10.667-4.776-10.667-10.667v-128c0-5.891,4.776-10.667,10.667-10.667S384,239.442,384,245.333v128
	C384,379.224,379.224,384,373.333,384z"/>
<g>
</g>
<g>
</g>
<g>
</g>
<g>
</g>
<g>
</g>
<g>
</g>
<g>
</g>
<g>
</g>
<g>
</g>
<g>
</g>
<g>
</g>
<g>
</g>
<g>
</g>
<g>
</g>
<g>
</g>
</svg>
