<?xml version="1.0" encoding="utf-8"?>
<!-- Generator: Adobe Illustrator 22.1.0, SVG Export Plug-In . SVG Version: 6.00 Build 0)  -->
<svg version="1.1" id="Layer_1" xmlns="http://www.w3.org/2000/svg" xmlns:xlink="http://www.w3.org/1999/xlink" x="0px" y="0px"
	 viewBox="0 0 1920 1080" style="enable-background:new 0 0 1920 1080;" xml:space="preserve">
<style type="text/css">
	.st0{fill:#FFFFFF;}
	.st1{fill:#313968;stroke:#313968;stroke-width:0.9032;stroke-miterlimit:10;}
	.st2{fill:url(#SVGID_1_);}
	.st3{fill:#E2E2E2;}
	.st4{fill:url(#SVGID_2_);}
	.st5{fill:url(#SVGID_3_);}
	.st6{fill:#4D4D4D;}
	.st7{fill:#1B75BB;}
	.st8{fill:#25A8E0;}
	.st9{font-family:'GothamMedium';}
	.st10{font-size:89.064px;}
</style>
<g>
	<g>
		<path class="st0" d="M5205.5-3260.2l-55.7-31.8c-8.1-4.6-13.2-13.2-13.2-22.6l-0.4-64.1c-0.1-9.4,4.9-18,13-22.7l55.4-32.4
			c8.1-4.7,18.1-4.8,26.2-0.1l55.7,31.8c8.1,4.6,13.2,13.2,13.2,22.6l0.4,64.1c0.1,9.4-4.9,18-13,22.7l-55.4,32.4
			C5223.6-3255.6,5213.7-3255.5,5205.5-3260.2z"/>
		<g>
			<g>
				<path class="st1" d="M5183.7-3358.8c-0.6,0-1.3-0.2-1.8-0.6c-1.3-1-1.5-2.8-0.5-4.1l28.1-35.1c1-1.3,2.8-1.5,4.1-0.5
					c1.3,1,1.5,2.8,0.5,4.1l-28.1,35.1C5185.4-3359.2,5184.5-3358.8,5183.7-3358.8z"/>
			</g>
			<g>
				<path class="st1" d="M5179.5-3376.1c-0.7,0-1.3-0.2-1.9-0.7c-1.3-1-1.5-2.9-0.4-4.1l14.4-17.8c1-1.3,2.9-1.5,4.1-0.4
					c1.3,1,1.5,2.9,0.4,4.1l-14.4,17.8C5181.2-3376.5,5180.3-3376.1,5179.5-3376.1z"/>
			</g>
			<g>
				<path class="st1" d="M5212.4-3293.8c-0.9,0-1.7-0.4-2.3-1.1l-30.4-37.9c-1-1.3-0.8-3.1,0.5-4.1c1.3-1,3.1-0.8,4.1,0.5l30.4,37.9
					c1,1.3,0.8,3.1-0.5,4.1C5213.6-3294,5213-3293.8,5212.4-3293.8z"/>
			</g>
			<g>
				<path class="st1" d="M5194.5-3293.7c-0.9,0-1.7-0.4-2.3-1.1l-14.6-18c-1-1.3-0.8-3.1,0.4-4.1c1.3-1,3.1-0.8,4.1,0.4l14.6,18
					c1,1.3,0.8,3.1-0.4,4.1C5195.8-3293.9,5195.1-3293.7,5194.5-3293.7z"/>
			</g>
			<path class="st1" d="M5254.1-3300l-19.7,0.4l-32.4-40.8c-2.9-3.6-2.9-8.7-0.1-12.3l32.1-41.5l18.4-0.3c0.9,0,1.7-0.5,2.3-1.1
				c0.4-0.5,0.6-1.2,0.6-1.8c0-1.6-1.4-2.9-3-2.9l-19.1,0.4c-0.4,0-0.8,0.1-1.1,0.2c-0.8,0.1-1.6,0.4-2.1,1.1l-34.2,44.1
				c-0.8,1.1-6.3,8.5,0.7,16.8l34.1,42.9c0.6,0.7,1.4,1.1,2.3,1.1c0,0,0,0,0,0c0.2,0.1,0.5,0.1,0.7,0.1l20.4-0.4
				c0.9,0,1.7-0.5,2.3-1.1c0.4-0.5,0.6-1.2,0.6-1.8C5257.1-3298.8,5255.7-3300,5254.1-3300z"/>
		</g>
	</g>
</g>
<linearGradient id="SVGID_1_" gradientUnits="userSpaceOnUse" x1="-20.3058" y1="2819.7422" x2="1920.6705" y2="2819.7422">
	<stop  offset="0" style="stop-color:#25A8E0"/>
	<stop  offset="0.2064" style="stop-color:#209FD7"/>
	<stop  offset="0.5494" style="stop-color:#1485BF"/>
	<stop  offset="0.9845" style="stop-color:#005C98"/>
	<stop  offset="0.9944" style="stop-color:#005B97"/>
</linearGradient>
<path class="st2" d="M1913.3,3369.9H-13c-4,0-7.3-3.3-7.3-7.3V2277c0-4,3.3-7.3,7.3-7.3h1926.3c4,0,7.3,3.3,7.3,7.3v1085.5
	C1920.7,3366.5,1917.4,3369.9,1913.3,3369.9z"/>
<path class="st3" d="M1917.5,2232.6H-8.8c-4,0-7.3-3.3-7.3-7.3V1139.7c0-4,3.3-7.3,7.3-7.3h1926.3c4,0,7.3,3.3,7.3,7.3v1085.5
	C1924.8,2229.3,1921.5,2232.6,1917.5,2232.6z"/>
<linearGradient id="SVGID_2_" gradientUnits="userSpaceOnUse" x1="419.2537" y1="-3164.8618" x2="1056.2224" y2="-3164.8618">
	<stop  offset="0" style="stop-color:#142A82"/>
	<stop  offset="1" style="stop-color:#385C71"/>
</linearGradient>
<path class="st4" d="M1054.2-3036.5H421.3c-1.1,0-2-0.9-2-2v-252.7c0-1.1,0.9-2,2-2h632.9c1.1,0,2,0.9,2,2v252.7
	C1056.2-3037.4,1055.3-3036.5,1054.2-3036.5z"/>
<radialGradient id="SVGID_3_" cx="950.1824" cy="550.4601" r="788.818" gradientUnits="userSpaceOnUse">
	<stop  offset="0" style="stop-color:#1B2032"/>
	<stop  offset="1" style="stop-color:#000B1B"/>
</radialGradient>
<path class="st5" d="M1913.3,1100.6H-13c-4,0-7.3-3.3-7.3-7.3V7.7c0-4,3.3-7.3,7.3-7.3h1926.3c4,0,7.3,3.3,7.3,7.3v1085.5
	C1920.7,1097.3,1917.4,1100.6,1913.3,1100.6z"/>
<text transform="matrix(1 0 0 1 798.1433 1665.6168)" class="st6 st9" style="font-size:97.0673px;">TRADING</text>
<g>
	<polygon class="st7" points="632.1,1721.6 745.9,1721.6 745.9,1696.8 656.9,1696.8 656.9,1592.9 632.1,1568.1 	"/>
	<polygon class="st7" points="785.6,1798.3 785.6,1721.6 760.7,1696.8 760.7,1823.1 887.1,1823.1 862.3,1798.3 	"/>
	<polygon class="st8" points="887.1,1696.8 800.5,1696.8 800.5,1721.6 862.3,1721.6 862.3,1798.3 887.1,1823.1 	"/>
	<polygon class="st8" points="785.6,1568.1 632.1,1568.1 656.9,1592.9 760.8,1592.9 760.7,1696.8 785.6,1721.6 	"/>
</g>
<text transform="matrix(1 0 0 1 914.7576 1747.6686)" class="st6 st9" style="font-size:97.0673px;">WAVES</text>
<text transform="matrix(1 0 0 1 808.2581 471.0761)" class="st0 st9 st10">TRADING</text>
<g>
	<polygon class="st7" points="655.9,522.4 760.3,522.4 760.3,499.7 678.7,499.7 678.7,404.4 655.9,381.6 	"/>
	<polygon class="st7" points="796.7,592.8 796.7,522.4 773.9,499.7 773.9,615.6 889.9,615.6 867.1,592.8 	"/>
	<polygon class="st8" points="889.9,499.7 810.4,499.7 810.4,522.4 867.1,522.4 867.1,592.8 889.9,615.6 	"/>
	<polygon class="st8" points="796.7,381.6 655.9,381.6 678.7,404.4 773.9,404.4 773.9,499.7 796.7,522.4 	"/>
</g>
<text transform="matrix(1 0 0 1 915.2581 546.363)" class="st0 st9 st10">WAVES</text>
<text transform="matrix(1 0 0 1 820.8239 2821.262)" class="st0 st9 st10">TRADING</text>
<g>
	<polygon points="668.5,2872.6 772.8,2872.6 772.8,2849.8 691.2,2849.8 691.2,2754.6 668.5,2731.8 	"/>
	<polygon points="809.3,2943 809.3,2872.6 786.5,2849.8 786.5,2965.8 902.4,2965.8 879.7,2943 	"/>
	<polygon class="st0" points="902.4,2849.8 823,2849.8 823,2872.6 879.7,2872.6 879.7,2943 902.4,2965.8 	"/>
	<polygon class="st0" points="809.3,2731.8 668.5,2731.8 691.2,2754.6 786.5,2754.6 786.5,2849.8 809.3,2872.6 	"/>
</g>
<text transform="matrix(1 0 0 1 927.8238 2896.5491)" class="st0 st9 st10">WAVES</text>
<text transform="matrix(1 0 0 1 2561.74 456.4884)" class="st0 st9 st10">TRADING</text>
<g>
	<polygon class="st7" points="2409.4,507.9 2513.8,507.9 2513.8,485.1 2432.2,485.1 2432.2,389.8 2409.4,367 	"/>
	<polygon class="st7" points="2550.2,578.2 2550.2,507.9 2527.4,485.1 2527.4,601 2643.4,601 2620.6,578.2 	"/>
	<polygon class="st8" points="2643.4,485.1 2563.9,485.1 2563.9,507.9 2620.6,507.9 2620.6,578.2 2643.4,601 	"/>
	<polygon class="st8" points="2550.2,367 2409.4,367 2432.2,389.8 2527.4,389.8 2527.4,485.1 2550.2,507.9 	"/>
</g>
<text transform="matrix(1 0 0 1 2668.74 531.7753)" class="st0 st9 st10">WAVES</text>
<text transform="matrix(1 0 0 1 2552.1484 865.4597)" class="st6 st9" style="font-size:97.0673px;">TRADING</text>
<g>
	<polygon class="st7" points="2386.1,921.4 2499.9,921.4 2499.9,896.6 2410.9,896.6 2410.9,792.8 2386.1,768 	"/>
	<polygon class="st7" points="2539.6,998.1 2539.6,921.4 2514.8,896.6 2514.8,1023 2641.1,1023 2616.3,998.1 	"/>
	<polygon class="st8" points="2641.1,896.6 2554.5,896.6 2554.5,921.4 2616.3,921.4 2616.3,998.1 2641.1,1023 	"/>
	<polygon class="st8" points="2539.6,768 2386.1,768 2410.9,792.8 2514.8,792.8 2514.8,896.6 2539.6,921.4 	"/>
</g>
<text transform="matrix(1 0 0 1 2668.7627 947.5114)" class="st6 st9" style="font-size:97.0673px;">WAVES</text>
</svg>
