<?xml version="1.0" encoding="utf-8"?>
<!-- Generator: Adobe Illustrator 22.1.0, SVG Export Plug-In . SVG Version: 6.00 Build 0)  -->
<svg version="1.1" id="Layer_1" xmlns="http://www.w3.org/2000/svg" xmlns:xlink="http://www.w3.org/1999/xlink" x="0px" y="0px"
	 viewBox="0 0 735.3 265.3" style="enable-background:new 0 0 735.3 265.3;" xml:space="preserve">
<style type="text/css">
	.st0{fill:#FFFFFF;}
	.st1{fill:#313968;stroke:#313968;stroke-width:0.9032;stroke-miterlimit:10;}
	.st2{fill:url(#SVGID_1_);}
	.st3{fill:#E2E2E2;}
	.st4{fill:url(#SVGID_2_);}
	.st5{fill:url(#SVGID_3_);}
	.st6{fill:#4D4D4D;}
	.st7{fill:#1B75BB;}
	.st8{fill:#25A8E0;}
	.st9{font-family:'GothamMedium';}
	.st10{font-size:97.0673px;}
</style>
<g>
	<g>
		<path class="st0" d="M2850.6-4028.1l-55.7-31.8c-8.1-4.6-13.2-13.2-13.2-22.6l-0.4-64.1c-0.1-9.4,4.9-18,13-22.7l55.4-32.4
			c8.1-4.7,18.1-4.8,26.2-0.1l55.7,31.8c8.1,4.6,13.2,13.2,13.2,22.6l0.4,64.1c0.1,9.4-4.9,18-13,22.7l-55.4,32.4
			C2868.8-4023.5,2858.8-4023.5,2850.6-4028.1z"/>
		<g>
			<g>
				<path class="st1" d="M2828.8-4126.8c-0.6,0-1.3-0.2-1.8-0.6c-1.3-1-1.5-2.9-0.5-4.1l28.1-35.1c1-1.3,2.8-1.5,4.1-0.5
					c1.3,1,1.5,2.8,0.5,4.1l-28.1,35.1C2830.5-4127.1,2829.6-4126.8,2828.8-4126.8z"/>
			</g>
			<g>
				<path class="st1" d="M2824.6-4144c-0.7,0-1.3-0.2-1.9-0.7c-1.3-1-1.5-2.9-0.4-4.1l14.4-17.8c1-1.3,2.9-1.5,4.1-0.4
					c1.3,1,1.5,2.9,0.4,4.1l-14.4,17.8C2826.3-4144.4,2825.4-4144,2824.6-4144z"/>
			</g>
			<g>
				<path class="st1" d="M2857.5-4061.7c-0.9,0-1.7-0.4-2.3-1.1l-30.4-37.9c-1-1.3-0.8-3.1,0.5-4.1c1.3-1,3.1-0.8,4.1,0.5l30.4,37.9
					c1,1.3,0.8,3.1-0.5,4.1C2858.7-4061.9,2858.1-4061.7,2857.5-4061.7z"/>
			</g>
			<g>
				<path class="st1" d="M2839.6-4061.6c-0.9,0-1.7-0.4-2.3-1.1l-14.6-18c-1-1.3-0.8-3.1,0.4-4.1c1.3-1,3.1-0.8,4.1,0.4l14.6,18
					c1,1.3,0.8,3.1-0.4,4.1C2840.9-4061.8,2840.2-4061.6,2839.6-4061.6z"/>
			</g>
			<path class="st1" d="M2899.2-4068l-19.7,0.4l-32.4-40.8c-2.9-3.6-2.9-8.7-0.1-12.3l32.1-41.5l18.4-0.3c0.9,0,1.7-0.5,2.3-1.1
				c0.4-0.5,0.6-1.2,0.6-1.8c0-1.6-1.4-2.9-3-2.9l-19.1,0.4c-0.4,0-0.8,0.1-1.1,0.2c-0.8,0.1-1.6,0.4-2.1,1.1l-34.2,44.1
				c-0.8,1.1-6.3,8.5,0.7,16.8l34.1,42.9c0.6,0.7,1.4,1.1,2.3,1.1c0,0,0,0,0,0c0.2,0.1,0.5,0.1,0.7,0.1l20.4-0.4
				c0.9,0,1.7-0.5,2.3-1.1c0.4-0.5,0.6-1.2,0.6-1.8C2902.2-4066.7,2900.9-4068,2899.2-4068z"/>
		</g>
	</g>
</g>
<linearGradient id="SVGID_1_" gradientUnits="userSpaceOnUse" x1="-2375.1904" y1="2051.7871" x2="-434.2142" y2="2051.7871">
	<stop  offset="0" style="stop-color:#25A8E0"/>
	<stop  offset="0.2064" style="stop-color:#209FD7"/>
	<stop  offset="0.5494" style="stop-color:#1485BF"/>
	<stop  offset="0.9845" style="stop-color:#005C98"/>
	<stop  offset="0.9944" style="stop-color:#005B97"/>
</linearGradient>
<path class="st2" d="M-441.6,2601.9h-1926.3c-4,0-7.3-3.3-7.3-7.3V1509c0-4,3.3-7.3,7.3-7.3h1926.3c4,0,7.3,3.3,7.3,7.3v1085.5
	C-434.2,2598.6-437.5,2601.9-441.6,2601.9z"/>
<path class="st3" d="M-437.4,1464.6h-1926.3c-4,0-7.3-3.3-7.3-7.3V371.8c0-4,3.3-7.3,7.3-7.3h1926.3c4,0,7.3,3.3,7.3,7.3v1085.5
	C-430,1461.3-433.4,1464.6-437.4,1464.6z"/>
<linearGradient id="SVGID_2_" gradientUnits="userSpaceOnUse" x1="-1935.6311" y1="-3932.8171" x2="-1298.6624" y2="-3932.8171">
	<stop  offset="0" style="stop-color:#142A82"/>
	<stop  offset="1" style="stop-color:#385C71"/>
</linearGradient>
<path class="st4" d="M-1300.7-3804.4h-632.9c-1.1,0-2-0.9-2-2v-252.7c0-1.1,0.9-2,2-2h632.9c1.1,0,2,0.9,2,2v252.7
	C-1298.7-3805.3-1299.6-3804.4-1300.7-3804.4z"/>
<radialGradient id="SVGID_3_" cx="-1404.7024" cy="-217.495" r="788.818" gradientUnits="userSpaceOnUse">
	<stop  offset="0" style="stop-color:#1B2032"/>
	<stop  offset="1" style="stop-color:#000B1B"/>
</radialGradient>
<path class="st5" d="M-441.6,332.6h-1926.3c-4,0-7.3-3.3-7.3-7.3V-760.3c0-4,3.3-7.3,7.3-7.3h1926.3c4,0,7.3,3.3,7.3,7.3V325.3
	C-434.2,329.3-437.5,332.6-441.6,332.6z"/>
<text transform="matrix(1 0 0 1 -1556.7415 897.6617)" class="st6 st9 st10">TRADING</text>
<g>
	<polygon class="st7" points="-1722.8,953.6 -1609,953.6 -1609,928.8 -1698,928.8 -1698,825 -1722.8,800.2 	"/>
	<polygon class="st7" points="-1569.3,1030.3 -1569.3,953.6 -1594.1,928.8 -1594.1,1055.2 -1467.8,1055.2 -1492.6,1030.3 	"/>
	<polygon class="st8" points="-1467.8,928.8 -1554.4,928.8 -1554.4,953.6 -1492.6,953.6 -1492.6,1030.3 -1467.8,1055.2 	"/>
	<polygon class="st8" points="-1569.3,800.2 -1722.8,800.2 -1698,825 -1594.1,825 -1594.1,928.8 -1569.3,953.6 	"/>
</g>
<text transform="matrix(1 0 0 1 -1440.1272 979.7134)" class="st6 st9 st10">WAVES</text>
<text transform="matrix(1 0 0 1 -1546.6266 -296.8791)" class="st0 st9" style="font-size:89.064px;">TRADING</text>
<g>
	<polygon class="st7" points="-1699,-245.5 -1594.6,-245.5 -1594.6,-268.3 -1676.2,-268.3 -1676.2,-363.6 -1699,-386.3 	"/>
	<polygon class="st7" points="-1558.2,-175.1 -1558.2,-245.5 -1580.9,-268.3 -1580.9,-152.4 -1465,-152.4 -1487.8,-175.1 	"/>
	<polygon class="st8" points="-1465,-268.3 -1544.5,-268.3 -1544.5,-245.5 -1487.8,-245.5 -1487.8,-175.1 -1465,-152.4 	"/>
	<polygon class="st8" points="-1558.2,-386.3 -1699,-386.3 -1676.2,-363.6 -1580.9,-363.6 -1580.9,-268.3 -1558.2,-245.5 	"/>
</g>
<text transform="matrix(1 0 0 1 -1439.6266 -221.5922)" class="st0 st9" style="font-size:89.064px;">WAVES</text>
<text transform="matrix(1 0 0 1 -1534.0609 2053.3066)" class="st0 st9" style="font-size:89.064px;">TRADING</text>
<g>
	<polygon points="-1686.4,2104.7 -1582,2104.7 -1582,2081.9 -1663.6,2081.9 -1663.6,1986.6 -1686.4,1963.8 	"/>
	<polygon points="-1545.6,2175 -1545.6,2104.7 -1568.4,2081.9 -1568.4,2197.8 -1452.4,2197.8 -1475.2,2175 	"/>
	<polygon class="st0" points="-1452.4,2081.9 -1531.9,2081.9 -1531.9,2104.7 -1475.2,2104.7 -1475.2,2175 -1452.4,2197.8 	"/>
	<polygon class="st0" points="-1545.6,1963.8 -1686.4,1963.8 -1663.6,1986.6 -1568.4,1986.6 -1568.4,2081.9 -1545.6,2104.7 	"/>
</g>
<text transform="matrix(1 0 0 1 -1427.0609 2128.5938)" class="st0 st9" style="font-size:89.064px;">WAVES</text>
<text transform="matrix(1 0 0 1 206.8552 -311.4667)" class="st0 st9" style="font-size:89.064px;">TRADING</text>
<g>
	<polygon class="st7" points="54.5,-260.1 158.9,-260.1 158.9,-282.9 77.3,-282.9 77.3,-378.2 54.5,-400.9 	"/>
	<polygon class="st7" points="195.3,-189.7 195.3,-260.1 172.5,-282.9 172.5,-167 288.5,-167 265.7,-189.7 	"/>
	<polygon class="st8" points="288.5,-282.9 209,-282.9 209,-260.1 265.7,-260.1 265.7,-189.7 288.5,-167 	"/>
	<polygon class="st8" points="195.3,-400.9 54.5,-400.9 77.3,-378.2 172.5,-378.2 172.5,-282.9 195.3,-260.1 	"/>
</g>
<text transform="matrix(1 0 0 1 313.8553 -236.1799)" class="st0 st9" style="font-size:89.064px;">WAVES</text>
<text transform="matrix(1 0 0 1 197.2638 97.5045)" class="st6 st9 st10">TRADING</text>
<g>
	<polygon class="st7" points="31.2,153.5 145,153.5 145,128.7 56,128.7 56,24.8 31.2,0 	"/>
	<polygon class="st7" points="184.7,230.2 184.7,153.5 159.9,128.7 159.9,255 286.2,255 261.4,230.2 	"/>
	<polygon class="st8" points="286.2,128.7 199.6,128.7 199.6,153.5 261.4,153.5 261.4,230.2 286.2,255 	"/>
	<polygon class="st8" points="184.7,0 31.2,0 56,24.8 159.9,24.8 159.9,128.7 184.7,153.5 	"/>
</g>
<text transform="matrix(1 0 0 1 313.8781 179.5562)" class="st6 st9 st10">WAVES</text>
</svg>
